<svg xmlns="http://www.w3.org/2000/svg" viewBox="0 0 210 297" width="100%" height="100%">
  <rect width="210" height="297" fill="#ffffff" />
  <circle cx="35" cy="38" r="15" fill="#fef3c7" stroke="#D97706" stroke-width="1.5" />
  <rect x="60" y="26" width="90" height="10" rx="2" fill="#D97706" />
  <rect x="60" y="40" width="60" height="5" rx="1" fill="#b45309" />
  <rect x="60" y="49" width="130" height="4" rx="1" fill="#f59e0b" />
  <line x1="20" y1="62" x2="190" y2="62" stroke="#fef3c7" stroke-width="2" />
  <rect x="20" y="72" width="65" height="6" rx="1" fill="#D97706" />
  <rect x="20" y="84" width="170" height="4" rx="1" fill="#78350f" />
  <rect x="20" y="91" width="150" height="4" rx="1" fill="#78350f" />
  <rect x="20" y="105" width="75" height="6" rx="1" fill="#D97706" />
  <rect x="20" y="117" width="80" height="4" rx="1" fill="#78350f" />
  <rect x="150" y="117" width="40" height="4" rx="1" fill="#f59e0b" />
  <rect x="20" y="124" width="170" height="3" rx="0.5" fill="#78350f" />
  <rect x="20" y="130" width="160" height="3" rx="0.5" fill="#78350f" />
</svg>