<svg xmlns="http://www.w3.org/2000/svg" viewBox="0 0 210 297" width="100%" height="100%">
  <rect width="210" height="297" fill="#ffffff" />
  <rect width="210" height="75" fill="#4F46E5" />
  <circle cx="35" cy="38" r="16" fill="#ffffff" stroke="#a5b4fc" stroke-width="1.5" />
  <rect x="60" y="26" width="90" height="10" rx="2" fill="#ffffff" />
  <rect x="60" y="40" width="60" height="5" rx="1" fill="#c7d2fe" />
  <rect x="60" y="49" width="130" height="4" rx="1" fill="#c7d2fe" />
  <rect x="20" y="90" width="60" height="6" rx="1" fill="#4F46E5" />
  <rect x="20" y="102" width="170" height="4" rx="1" fill="#4b5563" />
  <rect x="20" y="109" width="150" height="4" rx="1" fill="#4b5563" />
  <rect x="20" y="125" width="70" height="6" rx="1" fill="#4F46E5" />
  <rect x="20" y="137" width="80" height="4" rx="1" fill="#1f2937" />
  <rect x="150" y="137" width="40" height="4" rx="1" fill="#9ca3af" />
  <rect x="20" y="144" width="50" height="3" rx="0.5" fill="#4F46E5" />
  <rect x="20" y="150" width="170" height="3" rx="0.5" fill="#4b5563" />
  <rect x="20" y="165" width="80" height="4" rx="1" fill="#1f2937" />
  <rect x="150" y="165" width="40" height="4" rx="1" fill="#9ca3af" />
  <rect x="20" y="172" width="50" height="3" rx="0.5" fill="#4F46E5" />
  <rect x="20" y="178" width="160" height="3" rx="0.5" fill="#4b5563" />
</svg>