<svg xmlns="http://www.w3.org/2000/svg" viewBox="0 0 210 297" width="100%" height="100%">
  <rect width="210" height="297" fill="#ffffff" />
  <rect x="15" y="15" width="180" height="267" fill="none" stroke="#cbd5e1" stroke-width="0.75" />
  <rect x="25" y="25" width="100" height="10" rx="1" fill="#1e293b" />
  <rect x="25" y="38" width="60" height="4" rx="0.5" fill="#64748B" />
  <rect x="140" y="25" width="45" height="15" rx="1" fill="#f1f5f9" />
  <line x1="25" y1="50" x2="185" y2="50" stroke="#cbd5e1" stroke-width="0.75" />
  <rect x="25" y="58" width="50" height="5" rx="0.5" fill="#64748B" />
  <rect x="25" y="68" width="160" height="3" rx="0.5" fill="#475569" />
  <rect x="25" y="74" width="150" height="3" rx="0.5" fill="#475569" />
  <line x1="25" y1="84" x2="185" y2="84" stroke="#cbd5e1" stroke-width="0.75" />
  <rect x="25" y="92" width="60" height="5" rx="0.5" fill="#64748B" />
  <rect x="25" y="102" width="70" height="4" rx="0.5" fill="#1e293b" />
  <rect x="150" y="102" width="35" height="4" rx="0.5" fill="#94a3b8" />
  <rect x="25" y="109" width="160" height="3" rx="0.5" fill="#475569" />
  <rect x="25" y="115" width="140" height="3" rx="0.5" fill="#475569" />
  <line x1="25" y1="125" x2="185" y2="125" stroke="#cbd5e1" stroke-width="0.75" />
  <rect x="25" y="133" width="40" height="5" rx="0.5" fill="#64748B" />
  <rect x="25" y="143" width="80" height="4" rx="0.5" fill="#1e293b" />
  <rect x="150" y="143" width="35" height="4" rx="0.5" fill="#94a3b8" />
</svg>