<svg xmlns="http://www.w3.org/2000/svg" viewBox="0 0 210 297" width="100%" height="100%">
  <rect width="210" height="297" fill="#ffffff" />
  <rect width="210" height="8" fill="#2563EB" />
  <circle cx="35" cy="38" r="14" fill="#e2e8f0" stroke="#2563EB" stroke-width="1.5" />
  <rect x="60" y="26" width="90" height="10" rx="2" fill="#1e3a8a" />
  <rect x="60" y="40" width="60" height="5" rx="1" fill="#64748b" />
  <rect x="60" y="49" width="130" height="4" rx="1" fill="#94a3b8" />
  <line x1="20" y1="62" x2="190" y2="62" stroke="#e2e8f0" stroke-width="1" />
  <rect x="20" y="70" width="60" height="6" rx="1" fill="#2563EB" />
  <rect x="20" y="80" width="170" height="4" rx="1" fill="#64748b" />
  <rect x="20" y="87" width="150" height="4" rx="1" fill="#64748b" />
  <rect x="20" y="100" width="70" height="6" rx="1" fill="#2563EB" />
  <rect x="20" y="112" width="80" height="4" rx="1" fill="#1e293b" />
  <rect x="150" y="112" width="40" height="4" rx="1" fill="#94a3b8" />
  <rect x="20" y="119" width="50" height="3" rx="0.5" fill="#2563EB" />
  <rect x="20" y="125" width="170" height="3" rx="0.5" fill="#64748b" />
  <rect x="20" y="131" width="160" height="3" rx="0.5" fill="#64748b" />
  <rect x="20" y="142" width="80" height="4" rx="1" fill="#1e293b" />
  <rect x="150" y="142" width="40" height="4" rx="1" fill="#94a3b8" />
  <rect x="20" y="149" width="50" height="3" rx="0.5" fill="#2563EB" />
  <rect x="20" y="155" width="170" height="3" rx="0.5" fill="#64748b" />
  <rect x="20" y="170" width="40" height="6" rx="1" fill="#2563EB" />
  <rect x="20" y="182" width="90" height="4" rx="1" fill="#1e293b" />
  <rect x="150" y="182" width="40" height="4" rx="1" fill="#94a3b8" />
  <rect x="20" y="189" width="70" height="3" rx="0.5" fill="#64748b" />
  <rect x="20" y="205" width="30" height="6" rx="1" fill="#2563EB" />
  <rect x="20" y="217" width="35" height="4" rx="1" fill="#1e293b" />
  <rect x="20" y="224" width="70" height="3" rx="0.5" fill="#64748b" />
  <rect x="110" y="217" width="35" height="4" rx="1" fill="#1e293b" />
  <rect x="110" y="224" width="70" height="3" rx="0.5" fill="#64748b" />
</svg>