<svg xmlns="http://www.w3.org/2000/svg" viewBox="0 0 210 297" width="100%" height="100%">
  <rect width="210" height="297" fill="#ffffff" />
  <rect width="70" height="297" fill="#7C3AED" />
  <circle cx="35" cy="38" r="18" fill="#ffffff" stroke="#a78bfa" stroke-width="2" />
  <rect x="10" y="65" width="50" height="8" rx="1" fill="#ffffff" />
  <rect x="10" y="80" width="50" height="4" rx="0.5" fill="#ddd6fe" />
  <rect x="10" y="88" width="40" height="4" rx="0.5" fill="#ddd6fe" />
  <rect x="10" y="110" width="50" height="6" rx="1" fill="#ffffff" />
  <rect x="10" y="122" width="45" height="4" rx="0.5" fill="#c084fc" />
  <rect x="10" y="130" width="35" height="4" rx="0.5" fill="#c084fc" />
  <rect x="10" y="138" width="50" height="4" rx="0.5" fill="#c084fc" />
  <rect x="10" y="160" width="50" height="6" rx="1" fill="#ffffff" />
  <rect x="10" y="172" width="40" height="4" rx="0.5" fill="#c084fc" />
  <rect x="10" y="180" width="45" height="4" rx="0.5" fill="#c084fc" />
  <rect x="85" y="25" width="100" height="12" rx="2" fill="#1e1b4b" />
  <rect x="85" y="42" width="60" height="5" rx="1" fill="#7C3AED" />
  <rect x="85" y="65" width="50" height="6" rx="1" fill="#7C3AED" />
  <rect x="85" y="78" width="105" height="4" rx="1" fill="#4b5563" />
  <rect x="85" y="85" width="95" height="4" rx="1" fill="#4b5563" />
  <rect x="85" y="105" width="60" height="6" rx="1" fill="#7C3AED" />
  <rect x="85" y="118" width="80" height="4" rx="1" fill="#1f2937" />
  <rect x="85" y="125" width="105" height="3" rx="0.5" fill="#4b5563" />
  <rect x="85" y="131" width="100" height="3" rx="0.5" fill="#4b5563" />
  <rect x="85" y="142" width="80" height="4" rx="1" fill="#1f2937" />
  <rect x="85" y="149" width="105" height="3" rx="0.5" fill="#4b5563" />
  <rect x="85" y="165" width="60" height="6" rx="1" fill="#7C3AED" />
  <rect x="85" y="178" width="90" height="4" rx="1" fill="#1f2937" />
  <rect x="85" y="185" width="105" height="3" rx="0.5" fill="#4b5563" />
</svg>