<svg xmlns="http://www.w3.org/2000/svg" viewBox="0 0 210 297" width="100%" height="100%">
  <rect width="210" height="297" fill="#FCFDFE" />
  <rect x="20" y="20" width="170" height="257" fill="none" stroke="#e2e8f0" stroke-width="1" />
  <rect x="35" y="35" width="140" height="12" rx="1" fill="#0F172A" />
  <rect x="35" y="52" width="80" height="4" rx="0.5" fill="#475569" />
  <rect x="35" y="60" width="140" height="3" rx="0.5" fill="#94a3b8" />
  <line x1="35" y1="70" x2="175" y2="70" stroke="#0F172A" stroke-width="1.5" />
  <rect x="35" y="78" width="140" height="4" rx="0.5" fill="#475569" />
  <rect x="35" y="85" width="120" height="4" rx="0.5" fill="#475569" />
  <line x1="35" y1="96" x2="175" y2="96" stroke="#e2e8f0" stroke-width="1" />
  <rect x="35" y="104" width="60" height="6" rx="1" fill="#0F172A" />
  <rect x="35" y="116" width="70" height="4" rx="0.5" fill="#0F172A" />
  <rect x="140" y="116" width="35" height="4" rx="0.5" fill="#94a3b8" />
  <rect x="35" y="123" width="140" height="3" rx="0.5" fill="#475569" />
  <rect x="35" y="129" width="130" height="3" rx="0.5" fill="#475569" />
  <line x1="35" y1="142" x2="175" y2="142" stroke="#e2e8f0" stroke-width="1" />
  <rect x="35" y="150" width="40" height="6" rx="1" fill="#0F172A" />
  <rect x="35" y="162" width="80" height="4" rx="0.5" fill="#0F172A" />
  <rect x="35" y="169" width="140" height="3" rx="0.5" fill="#475569" />
</svg>