<svg xmlns="http://www.w3.org/2000/svg" viewBox="0 0 210 297" width="100%" height="100%">
  <rect width="210" height="297" fill="#ffffff" />
  <rect x="25" y="25" width="160" height="12" rx="2" fill="#0f172a" />
  <rect x="25" y="42" width="60" height="5" rx="1" fill="#06B6D4" />
  <rect x="25" y="52" width="160" height="3" rx="0.5" fill="#94a3b8" />
  <line x1="25" y1="62" x2="185" y2="62" stroke="#06B6D4" stroke-width="1.5" />
  <rect x="25" y="72" width="160" height="4" rx="1" fill="#64748b" />
  <rect x="25" y="79" width="130" height="4" rx="1" fill="#64748b" />
  <line x1="25" y1="92" x2="185" y2="92" stroke="#e2e8f0" stroke-width="1" />
  <rect x="25" y="100" width="50" height="5" rx="1" fill="#06B6D4" />
  <rect x="25" y="112" width="80" height="4" rx="1" fill="#0f172a" />
  <rect x="150" y="112" width="35" height="4" rx="1" fill="#94a3b8" />
  <rect x="25" y="119" width="160" height="3" rx="0.5" fill="#64748b" />
  <rect x="25" y="125" width="150" height="3" rx="0.5" fill="#64748b" />
  <line x1="25" y1="140" x2="185" y2="140" stroke="#e2e8f0" stroke-width="1" />
  <rect x="25" y="148" width="50" height="5" rx="1" fill="#06B6D4" />
  <rect x="25" y="160" width="90" height="4" rx="1" fill="#0f172a" />
  <rect x="150" y="160" width="35" height="4" rx="1" fill="#94a3b8" />
  <rect x="25" y="167" width="160" height="3" rx="0.5" fill="#64748b" />
</svg>