<svg xmlns="http://www.w3.org/2000/svg" viewBox="0 0 210 297" width="100%" height="100%">
  <rect width="210" height="297" fill="#FAFBFD" />
  <rect width="65" height="297" fill="#0F172A" />
  <circle cx="32.5" cy="35" r="15" fill="#1e293b" stroke="#10B981" stroke-width="1.5" />
  <rect x="10" y="60" width="45" height="6" rx="1" fill="#10B981" />
  <rect x="10" y="72" width="45" height="3" rx="0.5" fill="#94a3b8" />
  <rect x="10" y="78" width="40" height="3" rx="0.5" fill="#94a3b8" />
  <rect x="10" y="95" width="45" height="6" rx="1" fill="#10B981" />
  <rect x="10" y="107" width="40" height="4" rx="1" fill="#1e293b" />
  <rect x="10" y="114" width="30" height="4" rx="1" fill="#1e293b" />
  <rect x="10" y="121" width="45" height="4" rx="1" fill="#1e293b" />
  <rect x="10" y="140" width="45" height="6" rx="1" fill="#10B981" />
  <rect x="10" y="152" width="35" height="3" rx="0.5" fill="#94a3b8" />
  <rect x="10" y="158" width="40" height="3" rx="0.5" fill="#94a3b8" />
  <rect x="80" y="25" width="90" height="12" rx="2" fill="#0F172A" />
  <rect x="80" y="42" width="50" height="5" rx="1" fill="#10B981" />
  <rect x="80" y="60" width="50" height="6" rx="1" fill="#0F172A" />
  <rect x="80" y="72" width="110" height="4" rx="1" fill="#475569" />
  <rect x="80" y="79" width="100" height="4" rx="1" fill="#475569" />
  <rect x="80" y="95" width="60" height="6" rx="1" fill="#0F172A" />
  <rect x="80" y="108" width="80" height="4" rx="1" fill="#0F172A" />
  <rect x="80" y="115" width="110" height="3" rx="0.5" fill="#475569" />
  <rect x="85" y="123" width="105" height="3" rx="0.5" fill="#475569" />
</svg>